Coordinates
version=1
nRows=5
nColumns=40
inDegrees=yes

Units are S.I. units (second, meters, Newtons, ...)
Angles are in degrees.

endheader
time	pelvis_tilt	pelvis_list	pelvis_rotation	pelvis_tx	pelvis_ty	pelvis_tz	hip_flexion_r	hip_adduction_r	hip_rotation_r	knee_angle_r	knee_angle_r_beta	ankle_angle_r	subtalar_angle_r	mtp_angle_r	hip_flexion_l	hip_adduction_l	hip_rotation_l	knee_angle_l	knee_angle_l_beta	ankle_angle_l	subtalar_angle_l	mtp_angle_l	lumbar_extension	lumbar_bending	lumbar_rotation	arm_flex_r	arm_add_r	arm_rot_r	elbow_flex_r	pro_sup_r	wrist_flex_r	wrist_dev_r	arm_flex_l	arm_add_l	arm_rot_l	elbow_flex_l	pro_sup_l	wrist_flex_l	wrist_dev_l
     14.25250000	     -4.15562177	     -4.88290602	     -7.97580558	      1.00744383	      0.92519169	      0.53992430	     19.34461611	      3.64495244	     -9.43787411	     18.81240548	     18.81240548	      5.20238247	      0.55400989	     -7.16866880	      0.40050372	     -9.73608389	    -11.62619706	     25.80477170	     25.80477170	     18.35751702	    -12.54026683	      0.48638920	     -9.24177645	      8.92184347	      1.29220748	     -2.54941223	    -14.51341788	    -19.84870176	     37.61135596	     46.17522703	      0.00000000	      0.00000000	     28.48735607	    -19.25318517	    -10.96053849	     79.08830073	     47.80520491	      0.00000000	      0.00000000
     14.27200000	     -3.99386928	     -4.94070286	     -7.57216650	      1.00781867	      0.92601584	      0.54432534	     18.60805789	      3.86963008	     -9.76762663	     18.66808771	     18.66808771	      5.69431824	      0.65369072	     -7.05841502	      1.62727924	    -10.44779082	    -10.78641101	     29.00223314	     29.00223314	     17.20128680	    -13.61532666	     -0.33497742	     -9.26950278	      8.86180663	      1.36076886	     -2.14000749	    -14.86809310	    -20.06114696	     38.11992304	     46.16868234	      0.00000000	      0.00000000	     27.50615337	    -18.65449634	    -10.59841183	     78.16069744	     47.76138330	      0.00000000	      0.00000000
     14.29150000	     -3.84028683	     -4.91444365	     -7.16242917	      1.00798097	      0.92666883	      0.54853363	     17.99807985	      3.98789268	    -10.07100071	     18.70519536	     18.70519536	      6.29156363	      0.67620941	     -6.79948270	      3.02157680	    -11.00467353	     -9.76773781	     32.32771567	     32.32771567	     15.40786144	    -15.14365484	     -1.93597163	     -9.23643400	      8.72277420	      1.48472957	     -1.88526921	    -15.20731582	    -20.25340947	     39.18151058	     46.13366976	      0.00000000	      0.00000000	     26.59244860	    -17.97899319	    -10.21222306	     76.35523250	     47.70606375	      0.00000000	      0.00000000
     14.31100000	     -3.58341974	     -5.03231748	     -6.76564633	      1.00802739	      0.92739336	      0.55267626	     17.14318054	      4.28291322	    -10.38179392	     18.48980053	     18.48980053	      6.71892982	      0.70360312	     -6.82322841	      4.47096882	    -11.74158176	     -8.86295603	     35.96743050	     35.96743050	     14.04067708	    -16.10225922	     -2.28958727	     -9.41722448	      8.68140822	      1.66728262	     -1.31700254	    -15.61319703	    -20.27417383	     39.59210122	     46.12217795	      0.00000000	      0.00000000	     25.27560369	    -17.24921016	     -9.89537263	     75.50998721	     47.66268632	      0.00000000	      0.00000000
     14.33050000	     -3.50706721	     -4.99932666	     -6.34009861	      1.00780946	      0.92771561	      0.55655351	     16.61888773	      4.42010462	    -10.59699459	     18.45377673	     18.45377673	      7.16036776	      0.56011595	     -6.82649164	      6.25315066	    -12.24443033	     -7.80842283	     39.64132433	     39.64132433	     12.64196524	    -17.13138932	     -2.21384439	     -9.26811407	      8.50410995	      1.58611956	     -0.70845988	    -15.91138813	    -20.08847240	     40.38769680	     46.08275894	      0.00000000	      0.00000000	     23.75793095	    -16.66669832	     -9.66621155	     73.67090280	     47.60891081	      0.00000000	      0.00000000
